<mxfile host="app.diagrams.net" modified="2024-06-28T13:01:13.365Z" agent="Mozilla/5.0 (Windows NT 10.0; Win64; x64) AppleWebKit/537.36 (KHTML, like Gecko) Chrome/126.0.0.0 Safari/537.36" etag="cj6Mk8kbwUlELMZVe-iI" version="24.3.1" type="device">
  <diagram name="Halaman-1" id="p3OYXQaLFRLMaQOvrgvX">
    <mxGraphModel dx="1500" dy="746" grid="1" gridSize="10" guides="1" tooltips="1" connect="1" arrows="1" fold="1" page="1" pageScale="1" pageWidth="827" pageHeight="1169" math="0" shadow="0">
      <root>
        <mxCell id="0" />
        <mxCell id="1" parent="0" />
        <mxCell id="UNBOVduUI0EE2ofscAqK-3" value="" style="edgeStyle=orthogonalEdgeStyle;rounded=0;orthogonalLoop=1;jettySize=auto;html=1;" edge="1" parent="1" source="UNBOVduUI0EE2ofscAqK-1" target="UNBOVduUI0EE2ofscAqK-2">
          <mxGeometry relative="1" as="geometry" />
        </mxCell>
        <mxCell id="UNBOVduUI0EE2ofscAqK-1" value="Mulai" style="strokeWidth=2;html=1;shape=mxgraph.flowchart.start_2;whiteSpace=wrap;" vertex="1" parent="1">
          <mxGeometry x="480" y="90" width="70" height="70" as="geometry" />
        </mxCell>
        <mxCell id="UNBOVduUI0EE2ofscAqK-5" value="" style="edgeStyle=orthogonalEdgeStyle;rounded=0;orthogonalLoop=1;jettySize=auto;html=1;" edge="1" parent="1" source="UNBOVduUI0EE2ofscAqK-2" target="UNBOVduUI0EE2ofscAqK-4">
          <mxGeometry relative="1" as="geometry" />
        </mxCell>
        <mxCell id="UNBOVduUI0EE2ofscAqK-2" value="Menampilkan&lt;div&gt;Menu&lt;/div&gt;" style="rounded=1;whiteSpace=wrap;html=1;absoluteArcSize=1;arcSize=14;strokeWidth=2;" vertex="1" parent="1">
          <mxGeometry x="452.5" y="200" width="125" height="70" as="geometry" />
        </mxCell>
        <mxCell id="UNBOVduUI0EE2ofscAqK-7" value="" style="edgeStyle=orthogonalEdgeStyle;rounded=0;orthogonalLoop=1;jettySize=auto;html=1;" edge="1" parent="1" source="UNBOVduUI0EE2ofscAqK-4" target="UNBOVduUI0EE2ofscAqK-6">
          <mxGeometry relative="1" as="geometry" />
        </mxCell>
        <mxCell id="UNBOVduUI0EE2ofscAqK-26" value="Ya" style="edgeLabel;html=1;align=center;verticalAlign=middle;resizable=0;points=[];" vertex="1" connectable="0" parent="UNBOVduUI0EE2ofscAqK-7">
          <mxGeometry x="-0.2333" relative="1" as="geometry">
            <mxPoint as="offset" />
          </mxGeometry>
        </mxCell>
        <mxCell id="UNBOVduUI0EE2ofscAqK-9" value="" style="edgeStyle=orthogonalEdgeStyle;rounded=0;orthogonalLoop=1;jettySize=auto;html=1;" edge="1" parent="1" source="UNBOVduUI0EE2ofscAqK-4" target="UNBOVduUI0EE2ofscAqK-8">
          <mxGeometry relative="1" as="geometry" />
        </mxCell>
        <mxCell id="UNBOVduUI0EE2ofscAqK-27" value="Ya" style="edgeLabel;html=1;align=center;verticalAlign=middle;resizable=0;points=[];" vertex="1" connectable="0" parent="UNBOVduUI0EE2ofscAqK-9">
          <mxGeometry x="-0.2048" relative="1" as="geometry">
            <mxPoint as="offset" />
          </mxGeometry>
        </mxCell>
        <mxCell id="UNBOVduUI0EE2ofscAqK-25" value="" style="edgeStyle=orthogonalEdgeStyle;rounded=0;orthogonalLoop=1;jettySize=auto;html=1;" edge="1" parent="1" source="UNBOVduUI0EE2ofscAqK-4" target="UNBOVduUI0EE2ofscAqK-24">
          <mxGeometry relative="1" as="geometry" />
        </mxCell>
        <mxCell id="UNBOVduUI0EE2ofscAqK-28" value="Tidak" style="edgeLabel;html=1;align=center;verticalAlign=middle;resizable=0;points=[];" vertex="1" connectable="0" parent="UNBOVduUI0EE2ofscAqK-25">
          <mxGeometry x="-0.3241" relative="1" as="geometry">
            <mxPoint as="offset" />
          </mxGeometry>
        </mxCell>
        <mxCell id="UNBOVduUI0EE2ofscAqK-4" value="Memilih&lt;div&gt;Menu&lt;/div&gt;" style="rhombus;whiteSpace=wrap;html=1;rounded=1;arcSize=14;strokeWidth=2;" vertex="1" parent="1">
          <mxGeometry x="475" y="310" width="80" height="80" as="geometry" />
        </mxCell>
        <mxCell id="UNBOVduUI0EE2ofscAqK-11" value="" style="edgeStyle=orthogonalEdgeStyle;rounded=0;orthogonalLoop=1;jettySize=auto;html=1;" edge="1" parent="1" source="UNBOVduUI0EE2ofscAqK-6" target="UNBOVduUI0EE2ofscAqK-10">
          <mxGeometry relative="1" as="geometry" />
        </mxCell>
        <mxCell id="UNBOVduUI0EE2ofscAqK-6" value="Menambah Saldo" style="whiteSpace=wrap;html=1;rounded=1;arcSize=14;strokeWidth=2;" vertex="1" parent="1">
          <mxGeometry x="295" y="320" width="120" height="60" as="geometry" />
        </mxCell>
        <mxCell id="UNBOVduUI0EE2ofscAqK-13" value="" style="edgeStyle=orthogonalEdgeStyle;rounded=0;orthogonalLoop=1;jettySize=auto;html=1;" edge="1" parent="1" source="UNBOVduUI0EE2ofscAqK-8" target="UNBOVduUI0EE2ofscAqK-12">
          <mxGeometry relative="1" as="geometry" />
        </mxCell>
        <mxCell id="UNBOVduUI0EE2ofscAqK-8" value="Mengurangi Saldo" style="whiteSpace=wrap;html=1;rounded=1;arcSize=14;strokeWidth=2;" vertex="1" parent="1">
          <mxGeometry x="615" y="320" width="120" height="60" as="geometry" />
        </mxCell>
        <mxCell id="UNBOVduUI0EE2ofscAqK-15" value="" style="edgeStyle=orthogonalEdgeStyle;rounded=0;orthogonalLoop=1;jettySize=auto;html=1;" edge="1" parent="1" source="UNBOVduUI0EE2ofscAqK-10" target="UNBOVduUI0EE2ofscAqK-14">
          <mxGeometry relative="1" as="geometry" />
        </mxCell>
        <mxCell id="UNBOVduUI0EE2ofscAqK-10" value="Memasukkan&lt;div&gt;Nominal&lt;/div&gt;" style="shape=parallelogram;perimeter=parallelogramPerimeter;whiteSpace=wrap;html=1;fixedSize=1;rounded=1;arcSize=14;strokeWidth=2;" vertex="1" parent="1">
          <mxGeometry x="295" y="460" width="120" height="60" as="geometry" />
        </mxCell>
        <mxCell id="UNBOVduUI0EE2ofscAqK-17" value="" style="edgeStyle=orthogonalEdgeStyle;rounded=0;orthogonalLoop=1;jettySize=auto;html=1;" edge="1" parent="1" source="UNBOVduUI0EE2ofscAqK-12" target="UNBOVduUI0EE2ofscAqK-16">
          <mxGeometry relative="1" as="geometry" />
        </mxCell>
        <mxCell id="UNBOVduUI0EE2ofscAqK-12" value="Memasukkan&lt;div&gt;Nominal&lt;/div&gt;" style="shape=parallelogram;perimeter=parallelogramPerimeter;whiteSpace=wrap;html=1;fixedSize=1;rounded=1;arcSize=14;strokeWidth=2;" vertex="1" parent="1">
          <mxGeometry x="615" y="460" width="120" height="60" as="geometry" />
        </mxCell>
        <mxCell id="UNBOVduUI0EE2ofscAqK-22" style="edgeStyle=orthogonalEdgeStyle;rounded=0;orthogonalLoop=1;jettySize=auto;html=1;exitX=0;exitY=0.5;exitDx=0;exitDy=0;entryX=0;entryY=0.5;entryDx=0;entryDy=0;" edge="1" parent="1" source="UNBOVduUI0EE2ofscAqK-14" target="UNBOVduUI0EE2ofscAqK-2">
          <mxGeometry relative="1" as="geometry">
            <Array as="points">
              <mxPoint x="240" y="630" />
              <mxPoint x="240" y="235" />
            </Array>
          </mxGeometry>
        </mxCell>
        <mxCell id="UNBOVduUI0EE2ofscAqK-14" value="Menampilkan&lt;div&gt;Saldo&lt;/div&gt;" style="whiteSpace=wrap;html=1;rounded=1;arcSize=14;strokeWidth=2;" vertex="1" parent="1">
          <mxGeometry x="295" y="600" width="120" height="60" as="geometry" />
        </mxCell>
        <mxCell id="UNBOVduUI0EE2ofscAqK-23" style="edgeStyle=orthogonalEdgeStyle;rounded=0;orthogonalLoop=1;jettySize=auto;html=1;exitX=1;exitY=0.5;exitDx=0;exitDy=0;entryX=1;entryY=0.5;entryDx=0;entryDy=0;" edge="1" parent="1" source="UNBOVduUI0EE2ofscAqK-16" target="UNBOVduUI0EE2ofscAqK-2">
          <mxGeometry relative="1" as="geometry">
            <Array as="points">
              <mxPoint x="790" y="630" />
              <mxPoint x="790" y="235" />
            </Array>
          </mxGeometry>
        </mxCell>
        <mxCell id="UNBOVduUI0EE2ofscAqK-16" value="Menampilkan&lt;div&gt;Saldo&lt;/div&gt;" style="whiteSpace=wrap;html=1;rounded=1;arcSize=14;strokeWidth=2;" vertex="1" parent="1">
          <mxGeometry x="615" y="600" width="120" height="60" as="geometry" />
        </mxCell>
        <mxCell id="UNBOVduUI0EE2ofscAqK-24" value="Selesai" style="ellipse;whiteSpace=wrap;html=1;rounded=1;arcSize=14;strokeWidth=2;" vertex="1" parent="1">
          <mxGeometry x="477.5" y="460" width="75" height="70" as="geometry" />
        </mxCell>
      </root>
    </mxGraphModel>
  </diagram>
</mxfile>
